<svg width="416" height="161" viewBox="0 0 416 161" fill="none" xmlns="http://www.w3.org/2000/svg">
<path d="M79.0623 50.9386C79.0623 58.9773 84.2499 64.191 92.2484 64.191C100.247 64.191 105.435 58.9773 105.435 50.9386V8.36122C105.435 7.59849 105.759 7.27734 106.513 7.27734H121.641C122.4 7.27734 122.72 7.60351 122.72 8.36122V51.1543C122.72 68.4261 110.507 80.0477 92.3533 80.0477C74.1992 80.0477 61.767 68.4261 61.767 51.1543V23.1341H44.4767C38.2106 23.1341 33.8868 26.7169 33.8868 32.041C33.8868 37.365 38.5352 42.0317 44.5865 42.0317C45.3454 42.0317 46.314 41.9213 47.722 41.7055C48.476 41.6002 48.8005 41.8159 48.8005 42.5736V53.8691C48.8005 54.6318 48.476 55.0633 47.722 55.1737C46.2092 55.4999 44.262 55.7157 42.5344 55.7157C27.9453 55.7157 17.6799 45.6145 17.6799 31.2782C17.6799 16.9419 27.7306 7.27734 42.1051 7.27734H77.9838C78.7377 7.27734 79.0623 7.60351 79.0623 8.36122V50.9386Z" fill="white"/>
<path d="M128.96 26.0713C128.96 25.3177 129.281 24.9932 130.031 24.9932H143.385C144.135 24.9932 144.456 25.3177 144.56 26.0713L144.772 30.9327C149.47 26.0713 154.919 23.9102 161.541 23.9102C174.999 23.9102 184.08 32.8793 184.08 46.056V77.9246C184.08 78.6833 183.759 79.0077 183.014 79.0077H169.127C168.377 79.0077 168.061 78.6833 168.061 77.9246V50.2685C168.061 43.3558 163.678 39.0334 156.419 39.0334C149.159 39.0334 144.989 43.3558 144.989 50.2685V77.9246C144.989 78.6833 144.668 79.0077 143.923 79.0077H130.036C129.286 79.0077 128.965 78.6833 128.965 77.9246V26.0663L128.96 26.0713Z" fill="white"/>
<path d="M198.12 0C203.501 0 208 4.32988 208 9.95973C208 15.5896 203.501 19.4845 198.12 19.4845C192.738 19.4845 188.24 15.4796 188.24 9.95973C188.24 4.43988 192.632 0 198.12 0ZM189.888 25.9743C189.888 25.2193 190.218 24.8943 190.989 24.8943H205.261C206.032 24.8943 206.362 25.2193 206.362 25.9743V77.9229C206.362 78.6829 206.032 79.0079 205.261 79.0079H190.989C190.218 79.0079 189.888 78.6829 189.888 77.9229V25.9743Z" fill="white"/>
<path d="M240.705 80.0476C226.874 80.0476 220.392 73.1844 220.392 59.3573V39.2054H213.256C212.485 39.2054 212.16 38.8784 212.16 38.1186V25.5947C212.16 24.8349 212.49 24.5079 213.256 24.5079H220.392V12.5274C220.392 11.7626 220.721 11.4355 221.492 11.4355H235.765C236.53 11.4355 236.86 11.7626 236.86 12.5274V24.5079H250.585C251.356 24.5079 251.68 24.8349 251.68 25.5947V38.1186C251.68 38.8784 251.35 39.2054 250.585 39.2054H236.86V57.8277C236.86 63.272 238.945 65.8885 243.885 65.8885C245.64 65.8885 248.277 65.5614 250.58 65.018C251.35 64.9073 251.675 65.1287 251.675 65.8885V77.8689C251.675 78.6287 251.345 79.0664 250.58 79.1771C246.517 79.7206 243.555 80.0476 240.7 80.0476" fill="white"/>
<path d="M308.657 72.2771C308.657 73.0302 308.328 73.5738 307.78 74.0027C302.298 77.4589 293.521 80.0473 285.186 80.0473C267.091 80.0473 252.72 67.7436 252.72 51.9787C252.72 36.2139 266.538 23.9102 285.186 23.9102C298.239 23.9102 307.233 30.7128 307.233 40.9668C307.233 49.7095 300.651 55.3252 287.162 57.6992C281.786 58.6717 278.497 60.1829 276.744 62.6616C279.703 64.063 283.432 64.9308 287.714 64.9308C295.391 64.9308 302.303 62.3424 308.003 58.1281C308.551 57.6942 308.88 57.8039 308.88 58.557L308.662 72.2671L308.657 72.2771ZM284.198 47.9889C290.233 46.8019 292.974 44.9666 292.974 42.1587C292.974 39.3509 290.451 37.9494 285.627 37.9494C276.085 37.9494 269.173 43.9941 269.173 51.3354C269.173 52.6321 269.391 53.8191 269.72 54.8963C272.355 51.6595 277.179 49.5 284.198 47.9889Z" fill="white"/>
<path d="M370.235 51.8251C370.235 67.3453 356.965 80.0473 340.65 80.0473C324.335 80.0473 310.96 67.3503 310.96 51.8251C310.96 36.2999 322.813 23.6029 337.821 23.6029C343.911 23.6029 349.348 25.6639 353.92 29.8962V7.32046C353.92 6.56326 354.247 6.2373 355.01 6.2373H369.15C369.913 6.2373 370.24 6.56326 370.24 7.32046V51.8201L370.235 51.8251ZM354.463 51.9354C354.463 44.6642 348.373 38.8022 340.977 38.8022C333.581 38.8022 327.275 44.6642 327.275 51.9354C327.275 59.2066 333.365 64.853 340.977 64.853C348.589 64.853 354.463 58.991 354.463 51.9354Z" fill="white"/>
<path d="M16.3212 94.0171C20.889 89.8444 26.326 87.8124 32.4163 87.8124C47.426 87.8124 59.28 100.118 59.28 115.637C59.28 131.156 45.9034 143.462 29.5872 143.462C13.271 143.462 0 130.939 0 115.637V71.7593C0 71.0078 0.326625 70.6914 1.0854 70.6914H15.2258C15.9896 70.6914 16.3162 71.0128 16.3162 71.7593V94.0171H16.3212ZM42.9688 115.741C42.9688 108.572 36.8785 102.793 29.2656 102.793C21.6528 102.793 15.7785 108.572 15.7785 115.741C15.7785 122.91 21.8688 128.477 29.2656 128.477C36.6624 128.477 42.9688 122.697 42.9688 115.741Z" fill="#F10D59"/>
<path d="M80.7735 110.75C80.7735 117.162 84.4646 120.968 90.5427 120.968C96.6208 120.968 100.201 117.162 100.201 110.75V89.4489C100.201 88.6856 100.527 88.3643 101.285 88.3643H115.397C116.159 88.3643 116.48 88.6907 116.48 89.4489V134.988C116.48 149.55 105.302 160.095 89.7754 160.095C76.3153 160.095 66.5461 152.704 64.5903 141.511C64.48 140.753 64.806 140.426 65.5682 140.426H79.6803C80.3322 140.426 80.7635 140.753 81.0895 141.511C82.1777 144.227 85.5428 145.97 89.8807 145.97C96.1744 145.97 100.191 142.385 100.191 136.625V130.539C95.9588 134.451 91.1796 136.193 85.2118 136.193C72.6192 136.193 64.48 128.259 64.48 116.082V89.4539C64.48 88.6907 64.806 88.3693 65.5682 88.3693H79.6803C80.4426 88.3693 80.7635 88.6957 80.7635 89.4539V110.755L80.7735 110.75Z" fill="#F10D59"/>
<path d="M135.2 72.7999C135.2 72.0477 135.525 71.731 136.285 71.731H154.909C155.669 71.731 156.209 72.0526 156.529 72.6959L174.722 105.688L192.911 72.6959C193.236 72.0526 193.776 71.731 194.536 71.731H213.159C213.915 71.731 214.24 72.0526 214.24 72.7999V141.353C214.24 142.101 213.915 142.422 213.159 142.422H198.003C197.247 142.422 196.922 142.101 196.922 141.353V97.9686L182.306 124.32C181.981 124.963 181.44 125.285 180.68 125.285H168.77C168.009 125.285 167.469 124.963 167.144 124.32L152.528 97.9686V141.353C152.528 142.101 152.202 142.422 151.447 142.422H136.29C135.53 142.422 135.205 142.101 135.205 141.353V72.7999H135.2Z" fill="#F10D59"/>
<path d="M278.72 141.3C278.72 142.059 278.391 142.384 277.627 142.384H263.941C263.172 142.384 262.843 142.059 262.737 141.3L262.52 136.548C257.704 141.3 252.121 143.462 244.564 143.462C231.318 143.462 223.326 136.763 223.326 125.417C223.326 117.855 225.628 114.615 225.628 107.807C225.628 104.887 224.095 102.945 221.465 102.945H219.492C218.724 102.945 218.4 102.62 218.4 101.867V89.4425C218.4 88.6887 218.729 88.3643 219.492 88.3643H228.47C237.119 88.3643 242.045 93.3359 242.045 100.359C242.045 107.382 239.749 111.49 239.749 119.267C239.749 124.993 243.689 128.342 250.371 128.342C257.927 128.342 262.302 124.129 262.302 117.106V89.4474C262.302 88.6937 262.631 88.3693 263.395 88.3693H277.627C278.391 88.3693 278.72 88.6937 278.72 89.4474V141.31V141.3Z" fill="#F10D59"/>
<path d="M297.41 125.218C298.057 125.218 298.485 125.542 298.594 126.301C299.027 129.433 301.609 131.048 306.026 131.048C310.011 131.048 312.488 129.647 312.488 127.268C312.488 124.57 309.364 122.515 302.902 121.009C290.521 118.091 283.954 111.728 283.954 103.304C283.954 93.6985 292.57 87.3247 304.952 87.3247C317.333 87.3247 326.377 93.9129 327.023 103.409C327.023 104.162 326.7 104.486 325.949 104.486H312.488C311.841 104.486 311.518 104.162 311.304 103.409C310.767 101.14 308.503 99.7381 305.061 99.7381C301.937 99.7381 300.106 100.82 300.106 102.546C300.106 104.596 302.907 106.217 308.827 107.513C322.069 110.426 328.64 116.795 328.64 125.971C328.64 136.764 319.596 143.462 306.031 143.462C292.466 143.462 283.527 136.659 282.88 126.296C282.88 125.542 283.203 125.213 283.954 125.213H297.415L297.41 125.218Z" fill="#F10D59"/>
<path d="M342.68 64.4536C348.061 64.4536 352.56 68.7265 352.56 74.2774C352.56 79.8282 348.061 83.6768 342.68 83.6768C337.299 83.6768 332.8 79.7246 332.8 74.2774C332.8 68.8301 337.192 64.4536 342.68 64.4536ZM334.448 90.0861C334.448 89.3362 334.778 89.0204 335.549 89.0204H349.821C350.592 89.0204 350.922 89.3411 350.922 90.0861V141.351C350.922 142.096 350.592 142.422 349.821 142.422H335.549C334.778 142.422 334.448 142.101 334.448 141.351V90.0861Z" fill="#F10D59"/>
<path d="M386.128 143.462C369.864 143.462 356.72 130.829 356.72 115.393C356.72 99.9576 369.864 87.3247 386.128 87.3247C399.486 87.3247 411.013 96.0675 414.352 107.838C414.566 108.596 414.352 108.915 413.601 108.915H398.625C397.978 108.915 397.441 108.591 397.013 108.052C394.644 104.596 390.548 102.436 386.133 102.436C378.807 102.436 372.885 108.266 372.885 115.284C372.885 122.301 378.807 128.345 386.133 128.345C391.414 128.345 396.047 125.213 398.093 120.68C398.416 120.031 398.954 119.707 399.601 119.707H414.034C414.79 119.707 415.109 120.031 414.895 120.785C412.312 133.632 400.352 143.457 386.133 143.457" fill="#F10D59"/>
</svg>
